<?xml version="1.0" standalone="no"?>
<!DOCTYPE svg PUBLIC "-//W3C//DTD SVG 20010904//EN"
 "http://www.w3.org/TR/2001/REC-SVG-20010904/DTD/svg10.dtd">
<svg version="1.0" xmlns="http://www.w3.org/2000/svg"
 width="374.000000pt" height="216.000000pt" viewBox="0 0 374.000000 216.000000"
 preserveAspectRatio="xMidYMid meet">
<metadata>
Created by potrace 1.16, written by Peter Selinger 2001-2019
</metadata>
<g transform="translate(0.000000,216.000000) scale(0.100000,-0.100000)"
fill="#002B5C" stroke="none">
<path d="M3730 1085 l0 -1075 -1867 -3 -1868 -2 1873 -3 1872 -2 0 1080 c0
594 -2 1080 -5 1080 -3 0 -5 -484 -5 -1075z"/>
<path d="M1129 1928 c-22 -72 -47 -134 -94 -233 -47 -102 -75 -164 -75 -168 0
-3 -17 -43 -39 -89 -21 -45 -51 -111 -65 -145 -25 -59 -35 -82 -100 -225 -14
-31 -30 -68 -36 -83 l-10 -25 -270 0 -270 0 0 -154 c0 -139 2 -155 18 -160 9
-3 97 -5 195 -3 185 2 190 1 167 -41 -13 -24 -80 -171 -80 -177 0 -2 -16 -37
-35 -77 -51 -108 -108 -155 -204 -167 -25 -3 -46 -12 -49 -18 -3 -10 57 -13
277 -13 252 0 322 6 275 24 -9 3 -28 6 -44 6 -19 0 -37 10 -55 32 -23 27 -26
39 -23 78 3 25 13 63 24 85 10 22 19 42 19 45 0 3 11 28 24 55 12 28 27 61 33
75 6 14 18 40 28 58 l17 33 297 0 c164 0 300 -2 303 -4 12 -13 124 -304 129
-339 12 -69 -22 -113 -90 -120 -16 -2 -31 -9 -34 -15 -3 -10 84 -13 413 -13
329 0 416 3 413 13 -3 6 -24 15 -49 18 -65 9 -89 22 -139 73 -30 31 -59 78
-92 153 -70 156 -88 196 -98 215 -6 11 -5 17 3 20 7 1 144 2 305 0 l292 -3 0
-167 c0 -141 -3 -173 -19 -208 -23 -51 -74 -84 -130 -84 -30 0 -41 -4 -41 -15
0 -13 81 -15 668 -15 l667 0 13 53 c20 79 43 177 52 222 15 77 47 210 55 228
5 12 3 17 -9 17 -9 0 -23 -16 -33 -38 -37 -83 -50 -109 -84 -163 -69 -106
-191 -183 -319 -200 -36 -5 -147 -8 -245 -7 l-180 3 -3 188 -2 187 364 0 c200
0 371 3 380 6 14 5 16 29 16 160 l0 154 -377 2 -378 3 -3 404 -2 404 24 54
c21 44 33 57 68 73 24 11 53 20 65 20 28 0 53 10 53 21 0 5 -170 9 -395 9
-344 0 -395 -2 -395 -15 0 -10 10 -15 30 -15 43 0 90 -22 125 -59 l30 -32 3
-435 3 -434 -380 0 -380 0 -7 23 c-4 12 -28 67 -54 122 -70 147 -110 234 -110
239 0 3 -20 47 -44 98 -76 161 -116 249 -116 253 0 2 -17 41 -39 87 -21 46
-53 113 -70 151 -17 37 -37 67 -45 67 -8 0 -23 -29 -37 -72z m16 -750 c44
-111 82 -206 83 -210 2 -4 -73 -8 -167 -8 l-171 0 6 28 c4 15 19 54 34 87 55
122 120 280 120 293 0 38 23 -9 95 -190z m-602 -321 c10 -23 31 -68 47 -100
29 -60 24 -90 -6 -37 -16 27 -24 30 -65 30 -38 0 -49 -4 -54 -19 -3 -11 -13
-25 -22 -33 -15 -12 -16 -10 -10 14 9 35 80 188 87 188 3 0 13 -20 23 -43z
m657 32 c0 -6 20 -51 45 -100 24 -48 40 -91 35 -94 -5 -3 -17 8 -26 25 -16 27
-24 30 -66 30 -26 0 -48 -3 -48 -7 0 -5 -10 -19 -21 -33 l-21 -25 6 27 c9 38
79 188 88 188 4 0 8 -5 8 -11z m325 -9 c21 -24 14 -65 -15 -80 -20 -11 -20
-12 11 -55 31 -44 36 -76 5 -38 -8 10 -27 34 -43 53 l-28 34 -5 -47 c-9 -86
-25 -57 -28 51 l-3 102 44 0 c31 0 49 -6 62 -20z m505 -70 l0 -90 35 0 c25 0
35 -4 35 -16 0 -12 -10 -14 -47 -12 l-48 3 -3 103 c-2 86 0 102 13 102 12 0
15 -16 15 -90z m432 3 l3 -88 43 -3 c61 -4 49 -27 -14 -27 l-49 0 -3 103 c-2
63 1 102 7 102 6 0 11 -38 13 -87z m308 76 c0 -7 18 -49 40 -95 44 -92 45 -94
30 -94 -6 0 -16 11 -22 25 -10 21 -18 25 -57 25 -41 0 -49 -4 -65 -30 -34 -59
-34 -18 0 53 20 39 40 84 46 100 10 27 28 37 28 16z m236 -16 c4 -16 8 -30 8
-33 1 -3 7 -20 15 -38 17 -40 34 -30 50 31 19 74 27 76 51 8 13 -34 26 -64 31
-66 7 -5 49 94 49 115 0 6 6 10 14 10 11 0 13 -6 6 -27 -14 -45 -46 -128 -58
-149 -10 -18 -11 -17 -21 11 -6 17 -19 46 -28 66 -16 32 -19 35 -30 20 -7 -9
-13 -21 -13 -27 0 -6 -7 -29 -16 -50 l-16 -38 -15 28 c-8 15 -16 36 -18 46 -2
10 -9 29 -15 41 -23 41 -30 79 -15 79 7 0 16 -12 21 -27z m-2151 -113 c6 1 18
20 28 43 42 96 39 94 58 40 18 -54 34 -167 20 -143 -5 8 -14 38 -21 67 -8 29
-17 50 -21 47 -4 -2 -19 -29 -34 -59 -14 -30 -27 -55 -30 -55 -2 0 -16 27 -31
60 -15 33 -30 60 -34 60 -4 0 -10 -17 -14 -37 -4 -21 -13 -51 -21 -68 -14 -29
-14 -28 -9 25 5 49 15 96 31 140 3 9 17 -11 37 -52 17 -37 36 -68 41 -68z
m965 35 c41 -92 50 -141 13 -76 -16 28 -23 31 -66 31 -41 0 -49 -3 -59 -25 -6
-14 -17 -25 -24 -25 -10 0 -10 6 1 28 8 15 28 57 45 95 18 37 35 67 39 67 4 0
27 -43 51 -95z"/>
<path d="M500 814 c-13 -32 -6 -44 26 -44 27 0 29 8 12 45 -14 32 -26 32 -38
-1z"/>
<path d="M1170 814 c-12 -30 -6 -44 20 -44 26 0 32 14 19 44 -15 33 -27 33
-39 0z"/>
<path d="M1452 848 c2 -28 7 -33 28 -33 21 0 25 5 25 30 0 25 -4 30 -28 33
-27 3 -28 1 -25 -30z"/>
<path d="M2740 814 c-15 -38 -13 -44 14 -44 32 0 39 13 25 44 -15 33 -27 33
-39 0z"/>
<path d="M1747 811 c-15 -26 -15 -30 -1 -35 9 -3 24 -6 35 -6 16 0 18 5 13 28
-13 52 -22 55 -47 13z"/>
</g>
</svg>
